# xmcd CD database file
#
# Track frame offsets:
#	150
#	11235
#	24092
#	34568
#	46540
#	58364
#	69109
#	80095
#	91643
#	104020
#	115177
#	127070
#	137032
#	148828
#	159605
#	171404
#	184468
#	194878
#	206240
#	219215
#
# Disc length: 3054 seconds
#
# Revision: 0
# Processed by: cddbd v1.5.1PL0 Copyright (c) Steve Scherf et al.
# Submitted via: CDex 1.51
#
DISCID=2a0bec14
DTITLE=Kitty Wells - 20 All Time Greatest Hits
DYEAR=2004
DGENRE=Country
TTITLE0=Heartbreak USA
TTITLE1=Makin' Believe
TTITLE2=Will Your Lawyer Talk To God
TTITLE3=It Wasn't God Who Made Honky Tonk Angels
TTITLE4=Lonley Side Of Town
TTITLE5=I'm Paying For That Back Street Affair
TTITLE6=Meanwhile Down At Joe's
TTITLE7=She's No Angel
TTITLE8=Release Me
TTITLE9=From Left To Right
TTITLE10=I'll Always Be Your Fraulein
TTITLE11=Whose Shoulder Will You Cry On
TTITLE12=Amigo's Guitar
TTITLE13=Mommy For A Day
TTITLE14=I Gave My Wedding Dress Away
TTITLE15=How Far Is Heaven
TTITLE16=Searching (For Someone Like You)
TTITLE17=This White Circle On My Finger
TTITLE18=I Don't Claim To Be No Angel
TTITLE19=I Heard The Juke Box Playing
EXTD=YEAR: 2004
EXTT0=
EXTT1=
EXTT2=
EXTT3=
EXTT4=
EXTT5=
EXTT6=
EXTT7=
EXTT8=
EXTT9=
EXTT10=
EXTT11=
EXTT12=
EXTT13=
EXTT14=
EXTT15=
EXTT16=
EXTT17=
EXTT18=
EXTT19=
PLAYORDER=
